<svg id="visual" viewBox="0 0 900 600" width="900" height="600" xmlns="http://www.w3.org/2000/svg" xmlns:xlink="http://www.w3.org/1999/xlink" version="1.1"><g stroke-width="1" stroke-linejoin="bevel"><path d="M434 313L341.5 398L440 397Z" fill="#34353b" stroke="#34353b"></path><path d="M434 313L340.5 283L341.5 398Z" fill="#2a2a2f" stroke="#2a2a2f"></path><path d="M223 388L321.5 482L341.5 398Z" fill="#34353b" stroke="#34353b"></path><path d="M341.5 398L435 503L440 397Z" fill="#27272b" stroke="#27272b"></path><path d="M434 313L354.5 215L340.5 283Z" fill="#19191c" stroke="#19191c"></path><path d="M321.5 482L435 503L341.5 398Z" fill="#38393f" stroke="#38393f"></path><path d="M435 503L551.5 408L440 397Z" fill="#232327" stroke="#232327"></path><path d="M440 397L551.5 294L434 313Z" fill="#2d2e33" stroke="#2d2e33"></path><path d="M434 313L454 195L354.5 215Z" fill="#202023" stroke="#202023"></path><path d="M219 310L341.5 398L340.5 283Z" fill="#313137" stroke="#313137"></path><path d="M219 310L223 388L341.5 398Z" fill="#2a2a2f" stroke="#2a2a2f"></path><path d="M551.5 408L551.5 294L440 397Z" fill="#2a2a2f" stroke="#2a2a2f"></path><path d="M551.5 294L454 195L434 313Z" fill="#313137" stroke="#313137"></path><path d="M225 199L219 310L340.5 283Z" fill="#2d2e33" stroke="#2d2e33"></path><path d="M435 503L565.5 488L551.5 408Z" fill="#34353b" stroke="#34353b"></path><path d="M662 310L577.5 214L551.5 294Z" fill="#202023" stroke="#202023"></path><path d="M129.5 391L229 510L223 388Z" fill="#313137" stroke="#313137"></path><path d="M223 388L229 510L321.5 482Z" fill="#19191c" stroke="#19191c"></path><path d="M321.5 482L335.5 600L435 503Z" fill="#232327" stroke="#232327"></path><path d="M354.5 215L225 199L340.5 283Z" fill="#3b3d43" stroke="#3b3d43"></path><path d="M354.5 117L225 199L354.5 215Z" fill="#313137" stroke="#313137"></path><path d="M662 310L551.5 294L551.5 408Z" fill="#27272b" stroke="#27272b"></path><path d="M551.5 294L577.5 214L454 195Z" fill="#3b3d43" stroke="#3b3d43"></path><path d="M441 89L354.5 117L454 195Z" fill="#3b3d43" stroke="#3b3d43"></path><path d="M454 195L354.5 117L354.5 215Z" fill="#34353b" stroke="#34353b"></path><path d="M229 510L335.5 600L321.5 482Z" fill="#3b3d43" stroke="#3b3d43"></path><path d="M435 503L461 600L565.5 488Z" fill="#34353b" stroke="#34353b"></path><path d="M335.5 600L461 600L435 503Z" fill="#202023" stroke="#202023"></path><path d="M219 310L129.5 391L223 388Z" fill="#2a2a2f" stroke="#2a2a2f"></path><path d="M129.5 290L129.5 391L219 310Z" fill="#232327" stroke="#232327"></path><path d="M225 199L129.5 290L219 310Z" fill="#313137" stroke="#313137"></path><path d="M572.5 104L441 89L454 195Z" fill="#34353b" stroke="#34353b"></path><path d="M672 413L662 310L551.5 408Z" fill="#232327" stroke="#232327"></path><path d="M671 489L672 413L565.5 488Z" fill="#2a2a2f" stroke="#2a2a2f"></path><path d="M565.5 488L672 413L551.5 408Z" fill="#34353b" stroke="#34353b"></path><path d="M229 510L215 600L335.5 600Z" fill="#2a2a2f" stroke="#2a2a2f"></path><path d="M113.5 511L215 600L229 510Z" fill="#2d2e33" stroke="#2d2e33"></path><path d="M461 600L566.5 600L565.5 488Z" fill="#27272b" stroke="#27272b"></path><path d="M566.5 600L671 489L565.5 488Z" fill="#3b3d43" stroke="#3b3d43"></path><path d="M577.5 214L572.5 104L454 195Z" fill="#38393f" stroke="#38393f"></path><path d="M672 188L572.5 104L577.5 214Z" fill="#232327" stroke="#232327"></path><path d="M215 91L113.5 212L225 199Z" fill="#313137" stroke="#313137"></path><path d="M225 199L113.5 212L129.5 290Z" fill="#19191c" stroke="#19191c"></path><path d="M0 300L0 390L129.5 391Z" fill="#232327" stroke="#232327"></path><path d="M0 390L113.5 511L129.5 391Z" fill="#19191c" stroke="#19191c"></path><path d="M129.5 391L113.5 511L229 510Z" fill="#19191c" stroke="#19191c"></path><path d="M343.5 0L215 91L354.5 117Z" fill="#34353b" stroke="#34353b"></path><path d="M354.5 117L215 91L225 199Z" fill="#313137" stroke="#313137"></path><path d="M775.5 286L672 188L662 310Z" fill="#34353b" stroke="#34353b"></path><path d="M662 310L672 188L577.5 214Z" fill="#202023" stroke="#202023"></path><path d="M441 89L343.5 0L354.5 117Z" fill="#2d2e33" stroke="#2d2e33"></path><path d="M462 0L343.5 0L441 89Z" fill="#19191c" stroke="#19191c"></path><path d="M554.5 0L441 89L572.5 104Z" fill="#27272b" stroke="#27272b"></path><path d="M554.5 0L462 0L441 89Z" fill="#313137" stroke="#313137"></path><path d="M0 503L102.5 600L113.5 511Z" fill="#27272b" stroke="#27272b"></path><path d="M113.5 511L102.5 600L215 600Z" fill="#2d2e33" stroke="#2d2e33"></path><path d="M781.5 498L775.5 397L672 413Z" fill="#38393f" stroke="#38393f"></path><path d="M672 413L775.5 397L662 310Z" fill="#3b3d43" stroke="#3b3d43"></path><path d="M566.5 600L691 600L671 489Z" fill="#27272b" stroke="#27272b"></path><path d="M781.5 498L672 413L671 489Z" fill="#3b3d43" stroke="#3b3d43"></path><path d="M215 91L113.5 84L113.5 212Z" fill="#2a2a2f" stroke="#2a2a2f"></path><path d="M0 300L129.5 391L129.5 290Z" fill="#2a2a2f" stroke="#2a2a2f"></path><path d="M213 0L113.5 84L215 91Z" fill="#1c1c20" stroke="#1c1c20"></path><path d="M0 300L129.5 290L113.5 212Z" fill="#2a2a2f" stroke="#2a2a2f"></path><path d="M775.5 397L775.5 286L662 310Z" fill="#232327" stroke="#232327"></path><path d="M661 0L554.5 0L572.5 104Z" fill="#34353b" stroke="#34353b"></path><path d="M687 82L572.5 104L672 188Z" fill="#19191c" stroke="#19191c"></path><path d="M0 182L0 300L113.5 212Z" fill="#313137" stroke="#313137"></path><path d="M343.5 0L213 0L215 91Z" fill="#202023" stroke="#202023"></path><path d="M779.5 105L687 82L672 188Z" fill="#38393f" stroke="#38393f"></path><path d="M691 600L781.5 498L671 489Z" fill="#27272b" stroke="#27272b"></path><path d="M775.5 397L900 287L775.5 286Z" fill="#313137" stroke="#313137"></path><path d="M0 390L0 503L113.5 511Z" fill="#202023" stroke="#202023"></path><path d="M900 207L776.5 202L775.5 286Z" fill="#38393f" stroke="#38393f"></path><path d="M775.5 286L776.5 202L672 188Z" fill="#27272b" stroke="#27272b"></path><path d="M113.5 84L0 182L113.5 212Z" fill="#202023" stroke="#202023"></path><path d="M687 82L661 0L572.5 104Z" fill="#19191c" stroke="#19191c"></path><path d="M792.5 0L661 0L687 82Z" fill="#313137" stroke="#313137"></path><path d="M0 503L0 600L102.5 600Z" fill="#2a2a2f" stroke="#2a2a2f"></path><path d="M213 0L102.5 0L113.5 84Z" fill="#27272b" stroke="#27272b"></path><path d="M113.5 84L0 91L0 182Z" fill="#232327" stroke="#232327"></path><path d="M900 207L779.5 105L776.5 202Z" fill="#202023" stroke="#202023"></path><path d="M776.5 202L779.5 105L672 188Z" fill="#27272b" stroke="#27272b"></path><path d="M691 600L789.5 600L781.5 498Z" fill="#38393f" stroke="#38393f"></path><path d="M781.5 498L900 399L775.5 397Z" fill="#232327" stroke="#232327"></path><path d="M102.5 0L0 91L113.5 84Z" fill="#3b3d43" stroke="#3b3d43"></path><path d="M900 504L900 399L781.5 498Z" fill="#2a2a2f" stroke="#2a2a2f"></path><path d="M900 399L900 287L775.5 397Z" fill="#34353b" stroke="#34353b"></path><path d="M102.5 0L0 0L0 91Z" fill="#313137" stroke="#313137"></path><path d="M789.5 600L900 504L781.5 498Z" fill="#19191c" stroke="#19191c"></path><path d="M900 287L900 207L775.5 286Z" fill="#27272b" stroke="#27272b"></path><path d="M779.5 105L792.5 0L687 82Z" fill="#27272b" stroke="#27272b"></path><path d="M900 88L792.5 0L779.5 105Z" fill="#3b3d43" stroke="#3b3d43"></path><path d="M789.5 600L900 600L900 504Z" fill="#34353b" stroke="#34353b"></path><path d="M900 207L900 88L779.5 105Z" fill="#27272b" stroke="#27272b"></path><path d="M900 88L900 0L792.5 0Z" fill="#202023" stroke="#202023"></path></g></svg>