<svg id="visual" viewBox="0 0 900 600" width="900" height="600" xmlns="http://www.w3.org/2000/svg" xmlns:xlink="http://www.w3.org/1999/xlink" version="1.1"><g stroke-width="1" stroke-linejoin="bevel"><path d="M412 305L270 263L361 364Z" fill="#222c34" stroke="#222c34"></path><path d="M426 225L270 215L270 263Z" fill="#222c34" stroke="#222c34"></path><path d="M412 305L426 225L270 263Z" fill="#2d363e" stroke="#2d363e"></path><path d="M270 215L227 281L270 263Z" fill="#0e171f" stroke="#0e171f"></path><path d="M270 263L227 281L361 364Z" fill="#2d363e" stroke="#2d363e"></path><path d="M227 281L334 411L361 364Z" fill="#0e171f" stroke="#0e171f"></path><path d="M508 412L483 267L412 305Z" fill="#273139" stroke="#273139"></path><path d="M508 412L412 305L361 364Z" fill="#0e171f" stroke="#0e171f"></path><path d="M412 305L483 267L426 225Z" fill="#000000" stroke="#000000"></path><path d="M326 118L219 182L270 215Z" fill="#0e171f" stroke="#0e171f"></path><path d="M270 215L219 182L227 281Z" fill="#222c34" stroke="#222c34"></path><path d="M117 386L214 410L227 281Z" fill="#06121a" stroke="#06121a"></path><path d="M227 281L214 410L334 411Z" fill="#222c34" stroke="#222c34"></path><path d="M379 71L326 118L426 225Z" fill="#222c34" stroke="#222c34"></path><path d="M426 225L326 118L270 215Z" fill="#2d363e" stroke="#2d363e"></path><path d="M214 410L294 482L334 411Z" fill="#323c44" stroke="#323c44"></path><path d="M334 411L508 412L361 364Z" fill="#06121a" stroke="#06121a"></path><path d="M483 267L520 220L426 225Z" fill="#06121a" stroke="#06121a"></path><path d="M326 118L210 134L219 182Z" fill="#06121a" stroke="#06121a"></path><path d="M219 182L118 204L227 281Z" fill="#000000" stroke="#000000"></path><path d="M403 519L508 412L334 411Z" fill="#222c34" stroke="#222c34"></path><path d="M483 267L591 277L520 220Z" fill="#1d262e" stroke="#1d262e"></path><path d="M504 122L379 71L426 225Z" fill="#1d262e" stroke="#1d262e"></path><path d="M326 118L271 0L210 134Z" fill="#273139" stroke="#273139"></path><path d="M294 482L403 519L334 411Z" fill="#222c34" stroke="#222c34"></path><path d="M210 134L118 204L219 182Z" fill="#000b15" stroke="#000b15"></path><path d="M520 220L504 122L426 225Z" fill="#131c24" stroke="#131c24"></path><path d="M71 295L117 386L227 281Z" fill="#06121a" stroke="#06121a"></path><path d="M214 410L196 534L294 482Z" fill="#0e171f" stroke="#0e171f"></path><path d="M508 412L591 277L483 267Z" fill="#06121a" stroke="#06121a"></path><path d="M520 220L613 229L504 122Z" fill="#323c44" stroke="#323c44"></path><path d="M118 204L71 295L227 281Z" fill="#2d363e" stroke="#2d363e"></path><path d="M508 517L578 423L508 412Z" fill="#1d262e" stroke="#1d262e"></path><path d="M508 412L578 423L591 277Z" fill="#0e171f" stroke="#0e171f"></path><path d="M90 500L196 534L214 410Z" fill="#1d262e" stroke="#1d262e"></path><path d="M294 482L289 600L403 519Z" fill="#1d262e" stroke="#1d262e"></path><path d="M403 519L508 517L508 412Z" fill="#273139" stroke="#273139"></path><path d="M420 600L508 517L403 519Z" fill="#000b15" stroke="#000b15"></path><path d="M693 229L613 229L591 277Z" fill="#000000" stroke="#000000"></path><path d="M591 277L613 229L520 220Z" fill="#000b15" stroke="#000b15"></path><path d="M477 0L395 0L379 71Z" fill="#1d262e" stroke="#1d262e"></path><path d="M379 71L271 0L326 118Z" fill="#1d262e" stroke="#1d262e"></path><path d="M477 0L379 71L504 122Z" fill="#182129" stroke="#182129"></path><path d="M395 0L271 0L379 71Z" fill="#323c44" stroke="#323c44"></path><path d="M210 134L94 84L118 204Z" fill="#182129" stroke="#182129"></path><path d="M196 534L289 600L294 482Z" fill="#000b15" stroke="#000b15"></path><path d="M289 600L420 600L403 519Z" fill="#000b15" stroke="#000b15"></path><path d="M613 229L568 68L504 122Z" fill="#06121a" stroke="#06121a"></path><path d="M176 0L94 84L210 134Z" fill="#000b15" stroke="#000b15"></path><path d="M0 219L0 283L71 295Z" fill="#0e171f" stroke="#0e171f"></path><path d="M196 534L199 600L289 600Z" fill="#000b15" stroke="#000b15"></path><path d="M117 386L90 500L214 410Z" fill="#000000" stroke="#000000"></path><path d="M0 475L90 500L117 386Z" fill="#273139" stroke="#273139"></path><path d="M568 68L477 0L504 122Z" fill="#182129" stroke="#182129"></path><path d="M508 517L615 476L578 423Z" fill="#000b15" stroke="#000b15"></path><path d="M736 323L693 229L591 277Z" fill="#131c24" stroke="#131c24"></path><path d="M627 600L615 476L508 517Z" fill="#273139" stroke="#273139"></path><path d="M271 0L176 0L210 134Z" fill="#0e171f" stroke="#0e171f"></path><path d="M88 600L199 600L196 534Z" fill="#323c44" stroke="#323c44"></path><path d="M0 219L71 295L118 204Z" fill="#0e171f" stroke="#0e171f"></path><path d="M71 295L0 384L117 386Z" fill="#000b15" stroke="#000b15"></path><path d="M94 84L0 219L118 204Z" fill="#0e171f" stroke="#0e171f"></path><path d="M0 283L0 384L71 295Z" fill="#0e171f" stroke="#0e171f"></path><path d="M420 600L521 600L508 517Z" fill="#2d363e" stroke="#2d363e"></path><path d="M700 389L591 277L578 423Z" fill="#1d262e" stroke="#1d262e"></path><path d="M613 229L733 98L568 68Z" fill="#131c24" stroke="#131c24"></path><path d="M666 477L700 389L578 423Z" fill="#2d363e" stroke="#2d363e"></path><path d="M666 477L578 423L615 476Z" fill="#000000" stroke="#000000"></path><path d="M627 600L666 477L615 476Z" fill="#0e171f" stroke="#0e171f"></path><path d="M0 384L0 475L117 386Z" fill="#222c34" stroke="#222c34"></path><path d="M90 500L88 600L196 534Z" fill="#323c44" stroke="#323c44"></path><path d="M176 0L79 0L94 84Z" fill="#273139" stroke="#273139"></path><path d="M94 84L0 63L0 219Z" fill="#0e171f" stroke="#0e171f"></path><path d="M703 0L602 0L568 68Z" fill="#0e171f" stroke="#0e171f"></path><path d="M568 68L602 0L477 0Z" fill="#1d262e" stroke="#1d262e"></path><path d="M0 600L88 600L90 500Z" fill="#000000" stroke="#000000"></path><path d="M700 389L736 323L591 277Z" fill="#182129" stroke="#182129"></path><path d="M693 229L733 98L613 229Z" fill="#000b15" stroke="#000b15"></path><path d="M797 266L736 323L836 374Z" fill="#0e171f" stroke="#0e171f"></path><path d="M79 0L0 63L94 84Z" fill="#222c34" stroke="#222c34"></path><path d="M521 600L627 600L508 517Z" fill="#323c44" stroke="#323c44"></path><path d="M666 477L789 471L700 389Z" fill="#323c44" stroke="#323c44"></path><path d="M736 323L769 225L693 229Z" fill="#2d363e" stroke="#2d363e"></path><path d="M769 225L733 98L693 229Z" fill="#000b15" stroke="#000b15"></path><path d="M79 0L0 0L0 63Z" fill="#131c24" stroke="#131c24"></path><path d="M627 600L676 600L666 477Z" fill="#000000" stroke="#000000"></path><path d="M736 323L797 266L769 225Z" fill="#323c44" stroke="#323c44"></path><path d="M0 475L0 600L90 500Z" fill="#1d262e" stroke="#1d262e"></path><path d="M836 374L736 323L700 389Z" fill="#0e171f" stroke="#0e171f"></path><path d="M769 225L801 83L733 98Z" fill="#000b15" stroke="#000b15"></path><path d="M767 0L703 0L733 98Z" fill="#1d262e" stroke="#1d262e"></path><path d="M733 98L703 0L568 68Z" fill="#06121a" stroke="#06121a"></path><path d="M676 600L789 471L666 477Z" fill="#2d363e" stroke="#2d363e"></path><path d="M789 471L836 374L700 389Z" fill="#000000" stroke="#000000"></path><path d="M900 193L801 83L769 225Z" fill="#131c24" stroke="#131c24"></path><path d="M900 193L769 225L797 266Z" fill="#1d262e" stroke="#1d262e"></path><path d="M801 83L767 0L733 98Z" fill="#06121a" stroke="#06121a"></path><path d="M900 400L900 313L836 374Z" fill="#273139" stroke="#273139"></path><path d="M836 374L900 313L797 266Z" fill="#1d262e" stroke="#1d262e"></path><path d="M801 83L900 0L767 0Z" fill="#000000" stroke="#000000"></path><path d="M900 313L900 193L797 266Z" fill="#182129" stroke="#182129"></path><path d="M900 470L900 400L836 374Z" fill="#182129" stroke="#182129"></path><path d="M900 470L836 374L789 471Z" fill="#131c24" stroke="#131c24"></path><path d="M676 600L830 600L789 471Z" fill="#2d363e" stroke="#2d363e"></path><path d="M900 193L900 132L801 83Z" fill="#182129" stroke="#182129"></path><path d="M830 600L900 470L789 471Z" fill="#182129" stroke="#182129"></path><path d="M900 132L900 0L801 83Z" fill="#182129" stroke="#182129"></path><path d="M830 600L900 600L900 470Z" fill="#06121a" stroke="#06121a"></path></g></svg>